<svg version="1.1" id="Layer_1" xmlns="http://www.w3.org/2000/svg" xmlns:xlink="http://www.w3.org/1999/xlink" x="0px" y="0px"
	 width="100%" viewBox="0 0 1024 928" enable-background="new 0 0 1024 928" xml:space="preserve">
<path fill="#D282A6" opacity="1.000000" stroke="none" 
	d="
M367.803467,366.223083 
	C352.878387,354.437439 337.982635,343.169952 323.681366,331.192596 
	C315.195984,324.086060 306.507782,322.664551 296.315704,326.229034 
	C285.080872,330.158142 273.678436,332.385468 261.535706,330.489960 
	C232.534546,325.962799 208.968094,300.498718 206.547623,271.276215 
	C204.440979,245.842743 213.040909,225.279312 233.801682,210.643982 
	C275.576599,181.194626 330.161896,207.008194 337.068939,253.498428 
	C337.950714,259.433685 337.175568,265.457458 337.978943,271.446594 
	C339.073578,279.607300 342.654388,286.264465 348.511261,291.861389 
	C355.525146,298.564026 363.649567,303.857361 371.251801,309.813629 
	C399.452454,331.908569 427.659912,353.994904 455.817322,376.144928 
	C465.130554,383.471161 469.980133,384.002747 480.299347,377.790039 
	C498.988617,366.538116 518.654907,357.723267 540.152954,353.447418 
	C556.309265,350.234009 572.558777,349.879242 588.860229,352.364777 
	C595.385376,353.359680 599.043457,351.215485 601.330505,345.192139 
	C603.162415,340.367401 604.997192,335.543518 606.876953,330.737305 
	C611.911560,317.864990 610.915771,305.649414 601.563904,295.197113 
	C570.619812,260.611816 591.199829,198.535980 643.373108,190.110901 
	C681.790649,183.907150 719.989624,211.929291 719.593323,257.067230 
	C719.304504,289.956238 694.837830,315.981842 666.442200,320.485626 
	C661.168335,321.322113 657.837402,324.002136 656.050781,329.214508 
	C652.542053,339.450745 648.782837,349.597595 646.218140,360.130798 
	C644.247314,368.224518 644.798462,369.535950 652.041870,373.908386 
	C680.108215,390.850403 701.032043,414.193726 714.555054,444.056915 
	C718.400391,452.548676 721.636047,461.324829 723.732971,470.436707 
	C725.723694,479.087311 722.406067,483.277069 713.628601,483.315460 
	C696.129456,483.392029 678.629578,483.319550 661.130127,483.361664 
	C654.119141,483.378510 649.826416,479.707977 646.657593,473.750244 
	C638.024719,457.519623 626.180054,444.298767 609.946655,435.219940 
	C580.562378,418.786224 542.574707,422.380798 516.769409,444.091766 
	C499.305115,458.785095 487.975494,477.085510 483.995605,499.678162 
	C481.469025,514.020569 483.314941,527.947449 489.461395,541.087219 
	C501.609406,567.057129 520.156616,586.557434 548.636780,593.695190 
	C584.769592,602.750793 621.969666,590.088257 641.449463,555.874207 
	C648.601501,543.312622 658.866760,536.295654 673.741882,537.777771 
	C685.560181,538.955383 697.339172,538.505371 709.164673,538.034607 
	C723.394653,537.468140 726.597900,541.782043 722.793274,555.497314 
	C714.722473,584.591736 698.710999,608.632874 676.402954,628.754822 
	C653.192993,649.690369 626.625366,663.847351 595.526733,668.410095 
	C550.203064,675.059875 508.869843,665.192566 472.163483,637.316711 
	C465.519165,632.270813 459.362335,626.664734 453.250061,620.996216 
	C446.600708,614.829651 442.563049,614.488464 435.034607,619.451538 
	C414.170746,633.206116 393.465302,647.205139 372.452271,660.726868 
	C365.379883,665.277954 362.847687,671.142273 363.379486,679.207275 
	C364.464111,695.656799 359.737030,710.583557 349.910980,723.654541 
	C333.684570,745.239380 311.644318,752.963318 285.526306,748.152954 
	C257.917084,743.067932 239.932693,726.756897 232.560806,699.349243 
	C224.642319,669.909363 240.113907,636.988708 267.659668,623.989258 
	C287.274353,614.732666 306.728516,614.038757 326.333771,623.856506 
	C332.973633,627.181580 339.557465,626.808594 345.799530,622.684448 
	C367.764130,608.172363 389.759705,593.706238 411.639435,579.067139 
	C419.068695,574.096497 420.233948,570.258362 417.513092,561.519287 
	C411.108002,540.946838 408.397888,519.863831 409.859222,498.430084 
	C411.430084,475.389984 418.167297,453.695129 429.107544,433.329193 
	C435.165802,422.051453 434.415527,418.130615 424.483337,410.364532 
	C405.711975,395.687042 386.886047,381.079407 367.803467,366.223083 
z"/>
</svg>