<svg version="1.1" id="Layer_1" xmlns="http://www.w3.org/2000/svg" xmlns:xlink="http://www.w3.org/1999/xlink" x="0px" y="0px"
	 width="100%" viewBox="0 0 1992 1802" enable-background="new 0 0 1992 1802" xml:space="preserve">
<path fill="#FFFFFF" opacity="0.000000" stroke="none" 
	d="
M1196.000000,1803.000000 
	C797.333313,1803.000000 399.166656,1803.000000 1.000000,1803.000000 
	C1.000000,1202.333374 1.000000,601.666687 1.000000,1.000000 
	C665.000000,1.000000 1329.000000,1.000000 1993.000000,1.000000 
	C1993.000000,601.666687 1993.000000,1202.333374 1993.000000,1803.000000 
	C1727.500000,1803.000000 1462.000000,1803.000000 1196.000000,1803.000000 
M350.043427,648.067810 
	C350.043427,648.067810 350.089203,648.133972 349.436157,648.285095 
	C347.599121,649.691223 345.619263,650.946167 343.946869,652.526489 
	C324.696625,670.717224 305.404633,688.865417 286.333130,707.242310 
	C280.897400,712.480042 276.138336,718.419922 270.714600,724.614624 
	C267.932404,726.693970 264.906158,728.516846 262.407867,730.894470 
	C246.832275,745.717346 231.418457,760.710144 215.865662,775.557190 
	C201.125320,789.628784 186.247284,803.556152 171.490860,817.611023 
	C157.464615,830.970337 143.574097,844.472656 129.493729,857.774353 
	C126.151344,860.931946 124.653008,864.361572 124.992188,868.928894 
	C120.127739,870.953735 119.892242,871.593384 123.400162,875.282654 
	C126.813004,878.871948 130.429047,882.269897 133.994370,885.712036 
	C154.513260,905.521240 174.975250,925.390015 195.589569,945.099487 
	C215.972610,964.587830 236.558060,983.864380 256.972473,1003.320068 
	C277.396027,1022.784485 297.679596,1042.395752 318.094177,1061.869507 
	C340.295258,1083.047607 362.599945,1104.116943 384.815674,1125.279785 
	C403.651215,1143.222656 422.390381,1161.266724 441.237244,1179.197754 
	C454.079620,1191.416016 467.090027,1203.457642 479.923676,1215.685059 
	C494.442993,1229.518433 508.786926,1243.535889 523.321167,1257.353394 
	C537.849243,1271.164917 552.538086,1284.807129 567.120361,1298.561768 
	C585.936340,1316.310059 604.720337,1334.092163 623.510681,1351.867554 
	C638.312866,1365.870117 653.167664,1379.817871 667.880249,1393.913940 
	C680.454773,1405.961548 692.778015,1418.271484 705.362305,1430.308716 
	C719.857117,1444.173340 734.567139,1457.812988 749.090027,1471.648560 
	C763.491455,1485.368164 777.719055,1499.270142 792.128174,1512.981445 
	C806.893127,1527.031616 821.836487,1540.894165 836.609802,1554.935547 
	C854.995056,1572.409668 873.233032,1590.038940 891.633484,1607.497070 
	C909.188965,1624.153198 926.808350,1640.743286 944.531006,1657.221313 
	C951.003784,1663.239502 957.853821,1668.851807 965.643188,1675.614136 
	C966.561829,1670.880737 967.196411,1667.610596 967.751404,1665.185913 
	C967.862183,1667.346313 967.760864,1669.547974 968.169983,1671.650269 
	C968.385803,1672.759521 969.319458,1673.967163 970.280334,1674.575684 
	C970.664124,1674.819092 972.062012,1673.648315 972.867554,1672.966675 
	C973.324097,1672.580444 973.401794,1671.515503 973.843994,1671.377441 
	C981.758423,1668.908569 985.974548,1661.964600 991.479431,1656.672241 
	C1000.515442,1647.985229 1009.179321,1638.911011 1018.323669,1630.639771 
	C1020.380371,1629.867310 1022.856323,1629.581787 1024.419556,1628.235962 
	C1030.449585,1623.044678 1036.239502,1617.568970 1042.025635,1612.100464 
	C1060.324951,1594.806274 1078.542847,1577.425659 1096.866211,1560.157227 
	C1118.006592,1540.233643 1139.239380,1520.408203 1160.405762,1500.512207 
	C1173.351318,1488.343628 1186.252075,1476.127563 1199.163574,1463.922852 
	C1211.464844,1452.295044 1223.768433,1440.669556 1236.045166,1429.015869 
	C1250.829346,1414.981934 1265.578613,1400.911133 1280.357056,1386.871338 
	C1292.981812,1374.877441 1305.653442,1362.932861 1318.255249,1350.915039 
	C1331.084229,1338.680298 1343.815186,1326.342773 1356.659424,1314.124268 
	C1369.508667,1301.900757 1382.479614,1289.805176 1395.333618,1277.586426 
	C1407.953613,1265.590332 1420.444458,1253.458374 1433.081909,1241.480835 
	C1445.842529,1229.386597 1458.781982,1217.480957 1471.517822,1205.360962 
	C1486.040771,1191.540405 1500.375122,1177.522095 1514.882935,1163.685547 
	C1531.422607,1147.911255 1548.086670,1132.267212 1564.652222,1116.519775 
	C1577.162598,1104.627441 1589.568726,1092.625610 1602.083740,1080.738281 
	C1614.964111,1068.504028 1627.964478,1056.396362 1640.831421,1044.148071 
	C1655.364136,1030.314209 1669.783936,1016.361755 1684.295166,1002.505188 
	C1698.807861,988.647217 1713.417358,974.890381 1727.902222,961.003418 
	C1742.398071,947.105713 1756.863403,933.174561 1771.210693,919.124023 
	C1786.142334,904.501465 1800.969604,889.770935 1815.729980,874.975342 
	C1820.377686,870.316589 1820.116821,869.676636 1814.088623,866.212952 
	C1814.077637,865.810608 1814.066528,865.408264 1814.431763,864.548523 
	C1813.432007,862.720520 1812.768677,860.569092 1811.375122,859.119568 
	C1804.713867,852.190674 1797.933960,845.370544 1791.048340,838.663513 
	C1778.343750,826.288025 1765.599731,813.951538 1752.752930,801.723877 
	C1740.149414,789.727844 1727.331909,777.956848 1714.727661,765.961670 
	C1698.411499,750.433777 1682.251587,734.741760 1665.953735,719.194458 
	C1650.851440,704.787415 1635.625244,690.510132 1620.509399,676.117188 
	C1602.505859,658.974487 1584.609375,641.719177 1566.579224,624.604553 
	C1545.633545,604.722473 1524.562622,584.972168 1503.603760,565.104004 
	C1486.853882,549.225891 1470.221069,533.224426 1453.479248,517.337830 
	C1437.362671,502.044556 1421.135620,486.867462 1405.026123,471.566742 
	C1390.358276,457.635162 1375.809570,443.578186 1361.160522,429.626770 
	C1340.370239,409.826660 1319.508911,390.101074 1298.728760,370.290436 
	C1280.467407,352.881073 1262.325806,335.346069 1244.037598,317.965118 
	C1229.371704,304.026672 1214.501465,290.303314 1199.837646,276.362701 
	C1181.210327,258.654114 1162.754639,240.764816 1144.121338,223.062454 
	C1129.452759,209.126724 1114.596680,195.388657 1099.881104,181.502106 
	C1086.968994,169.317505 1074.197754,156.983246 1061.254761,144.831833 
	C1040.324829,125.181976 1019.319397,105.612610 998.316284,86.040970 
	C990.050720,78.338722 981.640564,70.790451 973.441956,63.018394 
	C971.360107,61.044888 969.698242,61.233097 967.868591,62.916229 
	C966.703796,63.987717 964.473755,64.973961 966.945496,67.004974 
	C966.945496,67.004974 967.000916,67.002983 966.241455,67.009491 
	C965.037537,67.238686 963.833557,67.467880 961.938538,67.822044 
	C957.540710,71.439934 953.126892,75.038513 948.750916,78.682709 
	C945.989319,80.982491 943.150024,83.213615 940.592041,85.726448 
	C938.049744,88.223930 935.963501,91.186386 933.415710,93.677490 
	C928.312073,98.667664 922.974121,103.417351 917.833984,108.371292 
	C909.120972,116.768692 900.619263,125.389954 891.775024,133.645233 
	C885.123108,139.854141 877.921143,145.472473 871.244202,151.656158 
	C864.502869,157.899490 858.131226,164.540665 851.546814,170.955399 
	C849.002686,173.433990 846.232666,175.682739 843.716492,178.187714 
	C838.565247,183.316086 833.636719,188.672623 828.396301,193.705994 
	C820.633606,201.162170 812.687439,208.427582 804.804626,215.758392 
	C796.087097,223.865524 787.317017,231.916382 778.637878,240.064224 
	C771.888184,246.400726 765.176331,252.780487 758.566040,259.261719 
	C746.744873,270.852081 735.219299,282.751801 723.190735,294.120728 
	C708.515869,307.990753 693.026123,321.018921 678.687012,335.217316 
	C667.221558,346.570251 656.749573,358.820496 643.963135,368.930725 
	C633.330017,377.338257 623.830566,387.189392 613.922119,396.500244 
	C607.157349,402.856995 600.552979,409.384430 593.207275,415.992279 
	C587.808594,420.626587 582.202393,425.042542 577.051941,429.937988 
	C563.875061,442.462250 550.828308,455.126099 537.877319,467.884155 
	C531.657166,474.011627 525.771301,480.478363 519.185059,487.112549 
	C518.169556,488.158203 517.154053,489.203827 515.440552,490.114258 
	C512.503418,492.510529 509.389008,494.721375 506.657318,497.332550 
	C486.026947,517.052795 465.425110,536.803589 444.946503,556.680969 
	C442.075958,559.467224 439.924377,562.994141 436.915070,566.600220 
	C435.657959,567.514038 434.400818,568.427856 432.467377,569.221802 
	C425.955963,574.851868 419.206818,580.232178 412.979095,586.160217 
	C396.288666,602.047607 379.763580,618.110535 363.313873,634.247498 
	C359.957397,637.540222 357.217499,641.461487 353.833191,645.601440 
	C353.262665,645.840576 352.692139,646.079712 351.500916,646.320007 
	C351.041687,646.905945 350.582489,647.491882 350.043427,648.067810 
z"/>
<path fill="#D282A6" opacity="1.000000" stroke="none" 
	d="
M967.831055,1664.340454 
	C967.196411,1667.610596 966.561829,1670.880737 965.643188,1675.614136 
	C957.853821,1668.851807 951.003784,1663.239502 944.531006,1657.221313 
	C926.808350,1640.743286 909.188965,1624.153198 891.633484,1607.497070 
	C873.233032,1590.038940 854.995056,1572.409668 836.609802,1554.935547 
	C821.836487,1540.894165 806.893127,1527.031616 792.128174,1512.981445 
	C777.719055,1499.270142 763.491455,1485.368164 749.090027,1471.648560 
	C734.567139,1457.812988 719.857117,1444.173340 705.362305,1430.308716 
	C692.778015,1418.271484 680.454773,1405.961548 667.880249,1393.913940 
	C653.167664,1379.817871 638.312866,1365.870117 623.510681,1351.867554 
	C604.720337,1334.092163 585.936340,1316.310059 567.120361,1298.561768 
	C552.538086,1284.807129 537.849243,1271.164917 523.321167,1257.353394 
	C508.786926,1243.535889 494.442993,1229.518433 479.923676,1215.685059 
	C467.090027,1203.457642 454.079620,1191.416016 441.237244,1179.197754 
	C422.390381,1161.266724 403.651215,1143.222656 384.815674,1125.279785 
	C362.599945,1104.116943 340.295258,1083.047607 318.094177,1061.869507 
	C297.679596,1042.395752 277.396027,1022.784485 256.972473,1003.320068 
	C236.558060,983.864380 215.972610,964.587830 195.589569,945.099487 
	C174.975250,925.390015 154.513260,905.521240 133.994370,885.712036 
	C130.429047,882.269897 126.813004,878.871948 123.400162,875.282654 
	C119.892242,871.593384 120.127739,870.953735 125.641052,869.018921 
	C126.862526,869.402039 127.435127,869.695129 128.475464,869.998108 
	C295.689545,870.011353 462.435913,870.018372 629.182251,870.016968 
	C739.791138,870.015991 850.400024,870.002869 961.325317,869.857910 
	C963.094116,867.470032 964.546448,865.219482 966.297607,862.680542 
	C966.731079,860.913818 966.983398,859.435486 966.983521,857.957092 
	C967.001099,594.305725 967.000671,330.654358 967.000916,67.002983 
	C967.000916,67.002983 966.945496,67.004974 967.360413,67.005936 
	C970.900024,68.183289 974.322632,68.900368 977.059326,70.675087 
	C979.435303,72.215919 980.883972,75.112053 983.003662,77.135628 
	C992.587341,86.285057 1002.272949,95.327606 1011.904602,104.426872 
	C1024.563477,116.386093 1037.245483,128.321136 1049.844727,140.342804 
	C1062.503784,152.421371 1075.003418,164.667450 1087.703369,176.702499 
	C1098.870728,187.285324 1110.342651,197.548157 1121.452881,208.189636 
	C1133.258179,219.496902 1144.679077,231.205338 1156.479614,242.517654 
	C1171.884521,257.285034 1187.544189,271.786224 1203.005737,286.494904 
	C1214.863403,297.775146 1226.521606,309.264984 1238.381104,320.543152 
	C1253.865967,335.268982 1269.505615,349.831757 1284.995483,364.552246 
	C1296.798706,375.769196 1308.401611,387.197266 1320.221924,398.395905 
	C1334.757690,412.167236 1349.453003,425.770050 1364.029297,439.498871 
	C1373.558105,448.473572 1382.952148,457.591370 1392.487427,466.558960 
	C1411.606201,484.539642 1430.804932,502.435303 1449.922974,520.416748 
	C1462.265381,532.025391 1474.501953,543.746582 1486.822998,555.377991 
	C1509.291626,576.588867 1531.839233,597.716370 1554.252808,618.985168 
	C1567.080933,631.158264 1579.669312,643.583679 1592.439697,655.818115 
	C1605.465942,668.297607 1618.643555,680.619324 1631.637939,693.131470 
	C1639.755127,700.947327 1647.555786,709.092163 1655.684082,716.895935 
	C1662.631104,723.565369 1669.958008,729.839050 1676.907837,736.505737 
	C1685.369507,744.622742 1693.523438,753.060364 1701.973999,761.189087 
	C1710.656616,769.540710 1719.563477,777.658325 1728.323242,785.930298 
	C1741.178467,798.069580 1753.950073,810.297791 1766.833618,822.406738 
	C1776.750977,831.727600 1786.720093,840.995605 1796.794556,850.145691 
	C1802.412720,855.248352 1808.293091,860.062073 1814.055420,865.005920 
	C1814.066528,865.408264 1814.077637,865.810608 1814.091064,866.897644 
	C1813.799072,869.008118 1813.504517,870.433838 1812.845215,871.863281 
	C1811.908691,872.248047 1811.336914,872.629211 1810.382080,873.006592 
	C1806.672607,871.701111 1803.346191,870.399353 1799.763184,868.757324 
	C1798.032837,868.272278 1796.559082,868.000793 1795.085327,868.000732 
	C1523.781372,867.983093 1252.477417,867.982910 981.173462,868.027222 
	C979.450317,868.027527 977.727295,868.656555 975.845703,869.302612 
	C971.832581,871.848572 967.711670,873.837158 966.606750,879.077576 
	C965.809021,881.337646 965.059753,883.507812 965.059326,885.678162 
	C965.005859,1135.489136 965.008057,1385.300049 965.007629,1635.111084 
	C965.007629,1637.944214 964.823425,1640.796265 965.105896,1643.601318 
	C965.224915,1644.782349 966.334656,1645.863647 966.998535,1647.419189 
	C967.279114,1653.345581 967.555054,1658.843018 967.831055,1664.340454 
z"/>
<path fill="#c45b8a" opacity="1.000000" stroke="none" 
	d="
M967.791199,1664.763184 
	C967.555054,1658.843018 967.279114,1653.345581 966.997559,1646.951660 
	C966.996277,1390.366089 967.000549,1134.676880 967.004822,878.987793 
	C967.711670,873.837158 971.832581,871.848572 976.312988,869.308350 
	C1160.512207,869.001587 1344.085693,868.988831 1527.659180,869.002380 
	C1618.446045,869.009033 1709.232910,869.064331 1800.019775,869.097595 
	C1803.346191,870.399353 1806.672607,871.701111 1810.304932,873.318604 
	C1809.055176,875.409119 1807.499756,877.184021 1805.963867,878.981995 
	C1805.983521,879.005127 1805.979614,878.944702 1805.730713,879.028076 
	C1805.302612,879.401245 1805.123413,879.690979 1804.974487,879.982910 
	C1805.004883,879.985107 1804.959961,879.943848 1804.642578,880.075562 
	C1803.529907,881.457397 1802.734619,882.707520 1801.952637,883.981567 
	C1801.965942,884.005493 1801.973999,883.951599 1801.698486,883.989746 
	C1801.266724,884.342896 1801.110718,884.657898 1800.981201,884.979370 
	C1801.007812,884.985962 1800.971802,884.944397 1800.615723,884.913452 
	C1799.151611,885.914551 1798.043579,886.946533 1796.963989,887.990234 
	C1796.992554,888.001953 1796.981567,887.941345 1796.725342,888.112427 
	C1796.293213,888.850708 1796.117188,889.417969 1795.968994,889.994080 
	C1795.996704,890.002930 1795.978638,889.947693 1795.710205,890.002319 
	C1795.276245,890.364746 1795.110596,890.672668 1794.973389,890.989197 
	C1795.001831,890.997864 1794.987061,890.940308 1794.678711,890.932373 
	C1793.893799,891.276733 1793.417236,891.629028 1792.969116,891.991638 
	C1792.997559,892.001892 1792.999390,891.941345 1792.748291,892.048706 
	C1792.265869,892.434875 1792.034424,892.713623 1791.537598,893.184326 
	C1790.250488,894.183594 1789.151123,894.910461 1788.218506,895.810303 
	C1774.166748,909.367065 1760.223633,923.037659 1746.079590,936.497070 
	C1729.535767,952.239929 1712.816528,967.798279 1696.182739,983.446533 
	C1679.010986,999.601074 1661.808960,1015.723633 1644.697632,1031.942017 
	C1629.552002,1046.297241 1614.516479,1060.768433 1599.426514,1075.182373 
	C1577.076904,1096.531006 1554.732422,1117.884888 1532.365723,1139.215454 
	C1518.887451,1152.069580 1505.348267,1164.859863 1491.878296,1177.722534 
	C1476.155029,1192.736938 1460.455566,1207.776489 1444.786255,1222.847168 
	C1431.061768,1236.047119 1417.482056,1249.398804 1403.673096,1262.509399 
	C1391.650757,1273.923706 1379.354980,1285.049316 1367.257446,1296.385010 
	C1353.353271,1309.413696 1339.545410,1322.544922 1325.675537,1335.610229 
	C1310.654297,1349.760254 1295.551514,1363.824341 1280.593140,1378.040405 
	C1268.242188,1389.778320 1256.082886,1401.717407 1243.778198,1413.504150 
	C1232.447632,1424.358032 1221.023193,1435.113770 1209.664307,1445.937988 
	C1194.750854,1460.149658 1179.921509,1474.450439 1164.946411,1488.596558 
	C1143.371460,1508.977295 1121.637329,1529.189941 1100.089111,1549.598877 
	C1087.372925,1561.642822 1074.974365,1574.021973 1062.268799,1586.077271 
	C1049.563354,1598.132080 1036.585815,1609.899902 1023.894226,1621.968750 
	C1021.525452,1624.221069 1019.944519,1627.301636 1018.000000,1630.000000 
	C1009.179321,1638.911011 1000.515442,1647.985229 991.479431,1656.672241 
	C985.974548,1661.964600 981.758423,1668.908569 973.843994,1671.377441 
	C973.401794,1671.515503 973.324097,1672.580444 972.867554,1672.966675 
	C972.062012,1673.648315 970.664124,1674.819092 970.280334,1674.575684 
	C969.319458,1673.967163 968.385803,1672.759521 968.169983,1671.650269 
	C967.760864,1669.547974 967.862183,1667.346313 967.791199,1664.763184 
z"/>
<path fill="#e2afc6" opacity="1.000000" stroke="none" 
	d="
M128.007736,869.988281 
	C127.435127,869.695129 126.862526,869.402039 125.994797,868.977539 
	C124.653008,864.361572 126.151344,860.931946 129.493729,857.774353 
	C143.574097,844.472656 157.464615,830.970337 171.490860,817.611023 
	C186.247284,803.556152 201.125320,789.628784 215.865662,775.557190 
	C231.418457,760.710144 246.832275,745.717346 262.407867,730.894470 
	C264.906158,728.516846 267.932404,726.693970 271.252106,724.304626 
	C274.057434,722.197205 276.446655,720.532043 278.572083,718.579712 
	C287.907928,710.003662 297.236115,701.417053 306.436798,692.696899 
	C317.153442,682.539917 327.858551,672.364319 338.313690,661.941040 
	C342.583405,657.684326 346.184143,652.756470 350.089203,648.133972 
	C350.089203,648.133972 350.043427,648.067810 350.371796,648.028320 
	C351.173981,647.432190 351.647766,646.875549 352.121582,646.318848 
	C352.692139,646.079712 353.262665,645.840576 354.368439,645.324341 
	C356.812500,643.571716 358.843628,642.228699 360.609711,640.598511 
	C369.956665,631.970703 379.295258,623.332214 388.525024,614.579590 
	C399.156464,604.497803 409.792755,594.415222 420.181427,584.086060 
	C424.811584,579.482422 428.841400,574.275024 433.143677,569.341675 
	C434.400818,568.427856 435.657959,567.514038 437.509521,566.341919 
	C438.934631,565.584717 439.892761,565.219482 440.576935,564.567078 
	C452.828125,552.884644 464.979004,541.096375 477.291199,529.478943 
	C488.425018,518.973328 499.814545,508.737457 510.882019,498.163574 
	C513.115723,496.029510 514.410767,492.913025 516.138550,490.249481 
	C517.154053,489.203827 518.169556,488.158203 519.823975,487.011963 
	C525.275513,482.953674 530.277344,479.201965 534.860229,474.993988 
	C543.586975,466.981232 552.092651,458.726990 560.656555,450.537872 
	C570.902649,440.740173 581.164795,430.957794 591.276672,421.022949 
	C592.582153,419.740326 593.031128,417.586029 593.876892,415.835510 
	C600.552979,409.384430 607.157349,402.856995 613.922119,396.500244 
	C623.830566,387.189392 633.330017,377.338257 643.963135,368.930725 
	C656.749573,358.820496 667.221558,346.570251 678.687012,335.217316 
	C693.026123,321.018921 708.515869,307.990753 723.190735,294.120728 
	C735.219299,282.751801 746.744873,270.852081 758.566040,259.261719 
	C765.176331,252.780487 771.888184,246.400726 778.637878,240.064224 
	C787.317017,231.916382 796.087097,223.865524 804.804626,215.758392 
	C812.687439,208.427582 820.633606,201.162170 828.396301,193.705994 
	C833.636719,188.672623 838.565247,183.316086 843.716492,178.187714 
	C846.232666,175.682739 849.002686,173.433990 851.546814,170.955399 
	C858.131226,164.540665 864.502869,157.899490 871.244202,151.656158 
	C877.921143,145.472473 885.123108,139.854141 891.775024,133.645233 
	C900.619263,125.389954 909.120972,116.768692 917.833984,108.371292 
	C922.974121,103.417351 928.312073,98.667664 933.415710,93.677490 
	C935.963501,91.186386 938.049744,88.223930 940.592041,85.726448 
	C943.150024,83.213615 945.989319,80.982491 948.750916,78.682709 
	C953.126892,75.038513 957.540710,71.439934 962.632202,68.052780 
	C963.548645,69.567780 963.953857,70.850075 963.967712,72.136566 
	C964.331299,106.080780 964.926392,140.025330 964.940491,173.970016 
	C965.035156,401.198303 965.001526,628.426636 965.055420,855.654968 
	C965.056030,858.093018 965.670715,860.530884 965.998779,862.968872 
	C964.546448,865.219482 963.094116,867.470032 961.031494,869.559204 
	C958.610352,869.265076 956.799500,869.016296 954.988586,869.016174 
	C681.223450,868.998779 407.458282,868.997070 133.693146,869.039673 
	C131.797958,869.039978 129.902863,869.658447 128.007736,869.988281 
z"/>
<path fill="#BC7C66" opacity="1.000000" stroke="none" 
	d="
M1018.161865,1630.319824 
	C1019.944519,1627.301636 1021.525452,1624.221069 1023.894226,1621.968750 
	C1036.585815,1609.899902 1049.563354,1598.132080 1062.268799,1586.077271 
	C1074.974365,1574.021973 1087.372925,1561.642822 1100.089111,1549.598877 
	C1121.637329,1529.189941 1143.371460,1508.977295 1164.946411,1488.596558 
	C1179.921509,1474.450439 1194.750854,1460.149658 1209.664307,1445.937988 
	C1221.023193,1435.113770 1232.447632,1424.358032 1243.778198,1413.504150 
	C1256.082886,1401.717407 1268.242188,1389.778320 1280.593140,1378.040405 
	C1295.551514,1363.824341 1310.654297,1349.760254 1325.675537,1335.610229 
	C1339.545410,1322.544922 1353.353271,1309.413696 1367.257446,1296.385010 
	C1379.354980,1285.049316 1391.650757,1273.923706 1403.673096,1262.509399 
	C1417.482056,1249.398804 1431.061768,1236.047119 1444.786255,1222.847168 
	C1460.455566,1207.776489 1476.155029,1192.736938 1491.878296,1177.722534 
	C1505.348267,1164.859863 1518.887451,1152.069580 1532.365723,1139.215454 
	C1554.732422,1117.884888 1577.076904,1096.531006 1599.426514,1075.182373 
	C1614.516479,1060.768433 1629.552002,1046.297241 1644.697632,1031.942017 
	C1661.808960,1015.723633 1679.010986,999.601074 1696.182739,983.446533 
	C1712.816528,967.798279 1729.535767,952.239929 1746.079590,936.497070 
	C1760.223633,923.037659 1774.166748,909.367065 1788.218506,895.810303 
	C1789.151123,894.910461 1790.250488,894.183594 1791.802490,893.090942 
	C1792.554810,892.517517 1792.777100,892.229431 1792.999390,891.941345 
	C1792.999390,891.941345 1792.997559,892.001892 1793.279053,891.975098 
	C1794.036133,891.612305 1794.511597,891.276306 1794.987061,890.940308 
	C1794.987061,890.940308 1795.001831,890.997864 1795.210449,890.891113 
	C1795.605713,890.505432 1795.792114,890.226562 1795.978516,889.947632 
	C1795.978638,889.947693 1795.996704,890.002930 1796.237183,889.840454 
	C1796.645630,889.099060 1796.813599,888.520203 1796.981567,887.941345 
	C1796.981567,887.941345 1796.992554,888.001953 1797.321289,887.993530 
	C1798.757202,886.971497 1799.864502,885.958008 1800.971924,884.944458 
	C1800.971802,884.944397 1801.007812,884.985962 1801.215576,884.882568 
	C1801.606812,884.503296 1801.790405,884.227417 1801.973999,883.951599 
	C1801.973999,883.951599 1801.965942,884.005493 1802.316772,883.957397 
	C1803.431763,882.587463 1804.195801,881.265686 1804.959961,879.943848 
	C1804.959961,879.943848 1805.004883,879.985107 1805.222412,879.897827 
	C1805.619751,879.521973 1805.799683,879.233337 1805.979614,878.944702 
	C1805.979614,878.944702 1805.983521,879.005127 1806.336304,879.008911 
	C1810.419678,878.047668 1812.732544,875.790283 1813.209961,871.859619 
	C1813.504517,870.433838 1813.799072,869.008118 1814.109131,867.200256 
	C1820.116821,869.676636 1820.377686,870.316589 1815.729980,874.975342 
	C1800.969604,889.770935 1786.142334,904.501465 1771.210693,919.124023 
	C1756.863403,933.174561 1742.398071,947.105713 1727.902222,961.003418 
	C1713.417358,974.890381 1698.807861,988.647217 1684.295166,1002.505188 
	C1669.783936,1016.361755 1655.364136,1030.314209 1640.831421,1044.148071 
	C1627.964478,1056.396362 1614.964111,1068.504028 1602.083740,1080.738281 
	C1589.568726,1092.625610 1577.162598,1104.627441 1564.652222,1116.519775 
	C1548.086670,1132.267212 1531.422607,1147.911255 1514.882935,1163.685547 
	C1500.375122,1177.522095 1486.040771,1191.540405 1471.517822,1205.360962 
	C1458.781982,1217.480957 1445.842529,1229.386597 1433.081909,1241.480835 
	C1420.444458,1253.458374 1407.953613,1265.590332 1395.333618,1277.586426 
	C1382.479614,1289.805176 1369.508667,1301.900757 1356.659424,1314.124268 
	C1343.815186,1326.342773 1331.084229,1338.680298 1318.255249,1350.915039 
	C1305.653442,1362.932861 1292.981812,1374.877441 1280.357056,1386.871338 
	C1265.578613,1400.911133 1250.829346,1414.981934 1236.045166,1429.015869 
	C1223.768433,1440.669556 1211.464844,1452.295044 1199.163574,1463.922852 
	C1186.252075,1476.127563 1173.351318,1488.343628 1160.405762,1500.512207 
	C1139.239380,1520.408203 1118.006592,1540.233643 1096.866211,1560.157227 
	C1078.542847,1577.425659 1060.324951,1594.806274 1042.025635,1612.100464 
	C1036.239502,1617.568970 1030.449585,1623.044678 1024.419556,1628.235962 
	C1022.856323,1629.581787 1020.380371,1629.867310 1018.161865,1630.319824 
z"/>
<path fill="#C78E76" opacity="1.000000" stroke="none" 
	d="
M1814.243652,864.777222 
	C1808.293091,860.062073 1802.412720,855.248352 1796.794556,850.145691 
	C1786.720093,840.995605 1776.750977,831.727600 1766.833618,822.406738 
	C1753.950073,810.297791 1741.178467,798.069580 1728.323242,785.930298 
	C1719.563477,777.658325 1710.656616,769.540710 1701.973999,761.189087 
	C1693.523438,753.060364 1685.369507,744.622742 1676.907837,736.505737 
	C1669.958008,729.839050 1662.631104,723.565369 1655.684082,716.895935 
	C1647.555786,709.092163 1639.755127,700.947327 1631.637939,693.131470 
	C1618.643555,680.619324 1605.465942,668.297607 1592.439697,655.818115 
	C1579.669312,643.583679 1567.080933,631.158264 1554.252808,618.985168 
	C1531.839233,597.716370 1509.291626,576.588867 1486.822998,555.377991 
	C1474.501953,543.746582 1462.265381,532.025391 1449.922974,520.416748 
	C1430.804932,502.435303 1411.606201,484.539642 1392.487427,466.558960 
	C1382.952148,457.591370 1373.558105,448.473572 1364.029297,439.498871 
	C1349.453003,425.770050 1334.757690,412.167236 1320.221924,398.395905 
	C1308.401611,387.197266 1296.798706,375.769196 1284.995483,364.552246 
	C1269.505615,349.831757 1253.865967,335.268982 1238.381104,320.543152 
	C1226.521606,309.264984 1214.863403,297.775146 1203.005737,286.494904 
	C1187.544189,271.786224 1171.884521,257.285034 1156.479614,242.517654 
	C1144.679077,231.205338 1133.258179,219.496902 1121.452881,208.189636 
	C1110.342651,197.548157 1098.870728,187.285324 1087.703369,176.702499 
	C1075.003418,164.667450 1062.503784,152.421371 1049.844727,140.342804 
	C1037.245483,128.321136 1024.563477,116.386093 1011.904602,104.426872 
	C1002.272949,95.327606 992.587341,86.285057 983.003662,77.135628 
	C980.883972,75.112053 979.435303,72.215919 977.059326,70.675087 
	C974.322632,68.900368 970.900024,68.183289 967.353882,66.979004 
	C964.473755,64.973961 966.703796,63.987717 967.868591,62.916229 
	C969.698242,61.233097 971.360107,61.044888 973.441956,63.018394 
	C981.640564,70.790451 990.050720,78.338722 998.316284,86.040970 
	C1019.319397,105.612610 1040.324829,125.181976 1061.254761,144.831833 
	C1074.197754,156.983246 1086.968994,169.317505 1099.881104,181.502106 
	C1114.596680,195.388657 1129.452759,209.126724 1144.121338,223.062454 
	C1162.754639,240.764816 1181.210327,258.654114 1199.837646,276.362701 
	C1214.501465,290.303314 1229.371704,304.026672 1244.037598,317.965118 
	C1262.325806,335.346069 1280.467407,352.881073 1298.728760,370.290436 
	C1319.508911,390.101074 1340.370239,409.826660 1361.160522,429.626770 
	C1375.809570,443.578186 1390.358276,457.635162 1405.026123,471.566742 
	C1421.135620,486.867462 1437.362671,502.044556 1453.479248,517.337830 
	C1470.221069,533.224426 1486.853882,549.225891 1503.603760,565.104004 
	C1524.562622,584.972168 1545.633545,604.722473 1566.579224,624.604553 
	C1584.609375,641.719177 1602.505859,658.974487 1620.509399,676.117188 
	C1635.625244,690.510132 1650.851440,704.787415 1665.953735,719.194458 
	C1682.251587,734.741760 1698.411499,750.433777 1714.727661,765.961670 
	C1727.331909,777.956848 1740.149414,789.727844 1752.752930,801.723877 
	C1765.599731,813.951538 1778.343750,826.288025 1791.048340,838.663513 
	C1797.933960,845.370544 1804.713867,852.190674 1811.375122,859.119568 
	C1812.768677,860.569092 1813.432007,862.720520 1814.243652,864.777222 
z"/>
<path fill="#C37557" opacity="1.000000" stroke="none" 
	d="
M966.297607,862.680542 
	C965.670715,860.530884 965.056030,858.093018 965.055420,855.654968 
	C965.001526,628.426636 965.035156,401.198303 964.940491,173.970016 
	C964.926392,140.025330 964.331299,106.080780 963.967712,72.136566 
	C963.953857,70.850075 963.548645,69.567780 962.977783,67.990295 
	C963.833557,67.467880 965.037537,67.238686 966.621216,67.006241 
	C967.000671,330.654358 967.001099,594.305725 966.983521,857.957092 
	C966.983398,859.435486 966.731079,860.913818 966.297607,862.680542 
z"/>
<path fill="#CB937B" opacity="1.000000" stroke="none" 
	d="
M515.789551,490.181885 
	C514.410767,492.913025 513.115723,496.029510 510.882019,498.163574 
	C499.814545,508.737457 488.425018,518.973328 477.291199,529.478943 
	C464.979004,541.096375 452.828125,552.884644 440.576935,564.567078 
	C439.892761,565.219482 438.934631,565.584717 437.771973,566.130859 
	C439.924377,562.994141 442.075958,559.467224 444.946503,556.680969 
	C465.425110,536.803589 486.026947,517.052795 506.657318,497.332550 
	C509.389008,494.721375 512.503418,492.510529 515.789551,490.181885 
z"/>
<path fill="#CB937B" opacity="1.000000" stroke="none" 
	d="
M349.762695,648.209534 
	C346.184143,652.756470 342.583405,657.684326 338.313690,661.941040 
	C327.858551,672.364319 317.153442,682.539917 306.436798,692.696899 
	C297.236115,701.417053 287.907928,710.003662 278.572083,718.579712 
	C276.446655,720.532043 274.057434,722.197205 271.429260,724.016235 
	C276.138336,718.419922 280.897400,712.480042 286.333130,707.242310 
	C305.404633,688.865417 324.696625,670.717224 343.946869,652.526489 
	C345.619263,650.946167 347.599121,649.691223 349.762695,648.209534 
z"/>
<path fill="#CB937B" opacity="1.000000" stroke="none" 
	d="
M432.805542,569.281738 
	C428.841400,574.275024 424.811584,579.482422 420.181427,584.086060 
	C409.792755,594.415222 399.156464,604.497803 388.525024,614.579590 
	C379.295258,623.332214 369.956665,631.970703 360.609711,640.598511 
	C358.843628,642.228699 356.812500,643.571716 354.548523,645.070190 
	C357.217499,641.461487 359.957397,637.540222 363.313873,634.247498 
	C379.763580,618.110535 396.288666,602.047607 412.979095,586.160217 
	C419.206818,580.232178 425.955963,574.851868 432.805542,569.281738 
z"/>
<path fill="#CA9177" opacity="1.000000" stroke="none" 
	d="
M593.542114,415.913879 
	C593.031128,417.586029 592.582153,419.740326 591.276672,421.022949 
	C581.164795,430.957794 570.902649,440.740173 560.656555,450.537872 
	C552.092651,458.726990 543.586975,466.981232 534.860229,474.993988 
	C530.277344,479.201965 525.275513,482.953674 520.098450,486.851410 
	C525.771301,480.478363 531.657166,474.011627 537.877319,467.884155 
	C550.828308,455.126099 563.875061,442.462250 577.051941,429.937988 
	C582.202393,425.042542 587.808594,420.626587 593.542114,415.913879 
z"/>
<path fill="#CB937B" opacity="1.000000" stroke="none" 
	d="
M351.811249,646.319458 
	C351.647766,646.875549 351.173981,647.432190 350.411713,648.033325 
	C350.582489,647.491882 351.041687,646.905945 351.811249,646.319458 
z"/>
<path fill="#B5694F" opacity="1.000000" stroke="none" 
	d="
M966.606750,879.077576 
	C967.000549,1134.676880 966.996277,1390.366089 966.992981,1646.522705 
	C966.334656,1645.863647 965.224915,1644.782349 965.105896,1643.601318 
	C964.823425,1640.796265 965.007629,1637.944214 965.007629,1635.111084 
	C965.008057,1385.300049 965.005859,1135.489136 965.059326,885.678162 
	C965.059753,883.507812 965.809021,881.337646 966.606750,879.077576 
z"/>
<path fill="#C87854" opacity="1.000000" stroke="none" 
	d="
M128.475464,869.998108 
	C129.902863,869.658447 131.797958,869.039978 133.693146,869.039673 
	C407.458282,868.997070 681.223450,868.998779 954.988586,869.016174 
	C956.799500,869.016296 958.610352,869.265076 960.715088,869.696411 
	C850.400024,870.002869 739.791138,870.015991 629.182251,870.016968 
	C462.435913,870.018372 295.689545,870.011353 128.475464,869.998108 
z"/>
<path fill="#B76E57" opacity="1.000000" stroke="none" 
	d="
M1799.763184,868.757324 
	C1709.232910,869.064331 1618.446045,869.009033 1527.659180,869.002380 
	C1344.085693,868.988831 1160.512207,869.001587 976.471497,868.997681 
	C977.727295,868.656555 979.450317,868.027527 981.173462,868.027222 
	C1252.477417,867.982910 1523.781372,867.983093 1795.085327,868.000732 
	C1796.559082,868.000793 1798.032837,868.272278 1799.763184,868.757324 
z"/>
<path fill="#C99583" opacity="1.000000" stroke="none" 
	d="
M1812.845215,871.863281 
	C1812.732544,875.790283 1810.419678,878.047668 1806.316650,878.985779 
	C1807.499756,877.184021 1809.055176,875.409119 1810.687988,873.322266 
	C1811.336914,872.629211 1811.908691,872.248047 1812.845215,871.863281 
z"/>
<path fill="#C99583" opacity="1.000000" stroke="none" 
	d="
M1804.642578,880.075562 
	C1804.195801,881.265686 1803.431763,882.587463 1802.303467,883.933472 
	C1802.734619,882.707520 1803.529907,881.457397 1804.642578,880.075562 
z"/>
<path fill="#C99583" opacity="1.000000" stroke="none" 
	d="
M1800.615723,884.913574 
	C1799.864502,885.958008 1798.757202,886.971497 1797.292725,887.981812 
	C1798.043579,886.946533 1799.151611,885.914551 1800.615723,884.913574 
z"/>
<path fill="#C99583" opacity="1.000000" stroke="none" 
	d="
M1796.725342,888.112427 
	C1796.813599,888.520203 1796.645630,889.099060 1796.209473,889.831543 
	C1796.117188,889.417969 1796.293213,888.850708 1796.725342,888.112427 
z"/>
<path fill="#C99583" opacity="1.000000" stroke="none" 
	d="
M1794.678711,890.932373 
	C1794.511597,891.276306 1794.036133,891.612305 1793.250732,891.964844 
	C1793.417236,891.629028 1793.893799,891.276733 1794.678711,890.932373 
z"/>
<path fill="#C99583" opacity="1.000000" stroke="none" 
	d="
M1801.698486,883.989746 
	C1801.790405,884.227417 1801.606812,884.503296 1801.188965,884.875977 
	C1801.110718,884.657898 1801.266724,884.342896 1801.698486,883.989746 
z"/>
<path fill="#C99583" opacity="1.000000" stroke="none" 
	d="
M1795.710205,890.002258 
	C1795.792114,890.226562 1795.605713,890.505432 1795.182129,890.882446 
	C1795.110596,890.672668 1795.276245,890.364746 1795.710205,890.002258 
z"/>
<path fill="#C99583" opacity="1.000000" stroke="none" 
	d="
M1792.748291,892.048706 
	C1792.777100,892.229431 1792.554810,892.517517 1792.067749,892.899048 
	C1792.034424,892.713623 1792.265869,892.434875 1792.748291,892.048706 
z"/>
<path fill="#C99583" opacity="1.000000" stroke="none" 
	d="
M1805.730713,879.028076 
	C1805.799683,879.233337 1805.619751,879.521973 1805.192017,879.895630 
	C1805.123413,879.690979 1805.302612,879.401245 1805.730713,879.028076 
z"/>
</svg>