<svg version="1.1" id="Layer_1" xmlns="http://www.w3.org/2000/svg" xmlns:xlink="http://www.w3.org/1999/xlink" x="0px" y="0px"
	 width="100%" viewBox="0 0 500 500" enable-background="new 0 0 500 500" xml:space="preserve">
<path fill="#FFFFFF" opacity="0.000000" stroke="none" 
	d="
M270.000000,501.000000 
	C180.000015,501.000000 90.500046,501.000000 1.000048,501.000000 
	C1.000032,334.333405 1.000032,167.666794 1.000016,1.000138 
	C167.666565,1.000092 334.333130,1.000092 500.999756,1.000046 
	C500.999847,167.666519 500.999847,334.333038 500.999939,500.999786 
	C424.166656,501.000000 347.333344,501.000000 270.000000,501.000000 
M282.561859,216.211807 
	C284.351715,215.764465 286.140259,214.933578 287.931580,214.927567 
	C313.223358,214.842636 338.515533,214.869797 363.807587,214.869781 
	C365.575684,214.869781 367.343750,214.869781 369.286316,214.869781 
	C369.286316,210.356201 369.286316,206.455154 369.286316,202.420959 
	C340.103058,202.420959 311.242798,202.420959 282.378571,202.420959 
	C281.983704,207.476578 281.611328,212.243958 280.984985,217.726242 
	C278.741119,226.471054 275.165222,234.573715 265.473419,236.724167 
	C259.592865,238.028961 253.216934,238.085800 247.185318,237.483597 
	C239.082275,236.674561 233.049362,231.835953 230.932632,223.923645 
	C228.933716,216.451630 227.224487,208.631897 227.172882,200.953125 
	C226.842545,151.796555 227.004395,102.636681 227.004379,53.477898 
	C227.004379,51.566212 227.004395,49.654530 227.004395,47.760349 
	C197.014786,47.760349 167.763504,47.760349 138.424255,47.760349 
	C138.424255,178.833130 138.424255,309.569794 138.424255,440.461060 
	C168.216690,440.461060 197.735413,440.461060 227.420349,440.461060 
	C226.317093,399.328949 225.224304,358.587799 224.127121,317.682434 
	C225.384933,317.802032 226.365067,317.906189 227.347153,317.987000 
	C239.588318,318.994629 251.818619,320.573883 264.074890,320.811798 
	C272.991730,320.984894 281.935303,318.806091 290.880432,318.686859 
	C315.205536,318.362671 339.537811,318.575531 363.867249,318.575531 
	C365.627899,318.575531 367.388580,318.575531 369.162170,318.575531 
	C369.162170,313.944397 369.162170,310.078308 369.162170,305.825439 
	C340.141357,305.825439 311.531921,305.825439 282.922455,305.825439 
	C282.753693,305.234344 282.584930,304.643250 282.416138,304.052155 
	C284.115356,303.559998 285.813019,302.645233 287.513977,302.639130 
	C313.009583,302.547455 338.505585,302.580475 364.001495,302.564880 
	C365.757782,302.563782 367.514008,302.410156 369.303345,302.325897 
	C369.303345,297.953369 369.303345,294.182465 369.303345,289.702301 
	C340.311859,289.702301 311.585571,289.702301 282.859283,289.702301 
	C282.859650,289.192139 282.860046,288.681976 282.860443,288.171814 
	C311.644684,288.171814 340.428925,288.171814 369.628357,288.171814 
	C369.402924,283.540802 369.217957,279.741455 369.026886,275.421234 
	C368.997559,275.250092 368.968201,275.078949 369.272888,274.183838 
	C369.229462,270.428711 369.186035,266.673584 369.297852,262.307739 
	C369.247070,261.893921 369.196320,261.480072 369.392212,260.155579 
	C369.392212,256.686981 369.392212,253.218399 369.392212,249.152863 
	C340.434448,249.152863 311.894623,249.152863 283.354828,249.152863 
	C283.355530,248.788101 283.356232,248.423340 283.356934,248.058578 
	C311.920746,248.058578 340.484589,248.058578 369.193237,248.058578 
	C369.193237,243.681870 369.193237,239.805588 369.193237,235.424408 
	C359.188904,235.424408 349.559692,235.424423 339.930481,235.424423 
	C330.269623,235.424423 320.608673,235.446594 310.947906,235.418060 
	C301.577515,235.390381 292.194427,235.543884 282.832886,235.328339 
	C282.852264,234.539917 282.871643,233.751511 282.891022,232.963089 
	C311.624268,232.963089 340.357483,232.963089 369.183716,232.963089 
	C369.183716,228.273422 369.183716,224.501236 369.183716,220.151947 
	C367.136902,220.151947 365.350616,220.151932 363.564331,220.151932 
	C338.079651,220.151886 312.594940,220.135269 287.110321,220.178497 
	C284.674042,220.182632 282.413086,220.279037 282.561859,216.211807 
M313.500000,47.130157 
	C303.083221,47.130157 292.666443,47.130157 282.322693,47.130157 
	C282.322693,51.733631 282.322693,55.637863 282.322693,59.504921 
	C311.510956,59.504921 340.354279,59.504921 369.240356,59.504921 
	C369.240356,55.232418 369.240356,51.330635 369.240356,47.130215 
	C350.749115,47.130215 332.624573,47.130215 313.500000,47.130157 
M292.538361,103.609062 
	C318.086273,103.609062 343.634155,103.609062 369.253143,103.609062 
	C369.253143,99.019859 369.253143,95.130211 369.253143,91.278168 
	C340.030853,91.278168 311.165558,91.278168 282.316925,91.278168 
	C282.316925,95.469955 282.316925,99.353607 282.316925,103.608711 
	C285.618866,103.608711 288.587555,103.608711 292.538361,103.609062 
M303.500183,124.390945 
	C296.411591,124.390945 289.323029,124.390945 282.329956,124.390945 
	C282.329956,129.002075 282.329956,132.901733 282.329956,136.689438 
	C311.527374,136.689438 340.372711,136.689438 369.207520,136.689438 
	C369.207520,132.469711 369.207520,128.590927 369.207520,124.391289 
	C347.371765,124.391289 325.935944,124.391289 303.500183,124.390945 
M330.500000,153.979034 
	C314.431091,153.979034 298.362183,153.979034 282.317627,153.979034 
	C282.317627,158.470306 282.317627,162.354797 282.317627,166.258453 
	C311.500092,166.258453 340.342621,166.258453 369.249023,166.258453 
	C369.249023,162.014343 369.249023,158.126114 369.249023,153.979034 
	C356.427155,153.979034 343.963562,153.979034 330.500000,153.979034 
M301.500610,179.390930 
	C295.077362,179.390930 288.654144,179.390930 282.331360,179.390930 
	C282.331360,184.005478 282.331360,187.904785 282.331360,191.687805 
	C311.529968,191.687805 340.375153,191.687805 369.206116,191.687805 
	C369.206116,187.464050 369.206116,183.586975 369.206116,179.391281 
	C346.703247,179.391281 324.601776,179.391281 301.500610,179.390930 
M282.117004,330.715454 
	C282.117004,334.472382 282.117004,338.229279 282.117004,341.907806 
	C311.501740,341.907806 340.276611,341.907806 369.310760,341.907806 
	C369.310760,337.896576 369.310760,334.139374 369.310760,330.002106 
	C340.302002,330.002106 311.530304,330.002106 282.117004,330.715454 
z"/>
<path fill="#D282A6" opacity="1.000000" stroke="none" 
	d="
M369.142578,262.918457 
	C369.186035,266.673584 369.229462,270.428711 368.643677,274.496155 
	C339.812439,274.808502 311.610413,274.808502 283.408356,274.808502 
	C283.408722,275.186371 283.409119,275.564270 283.409485,275.942139 
	C311.950653,275.942139 340.491821,275.942139 369.032990,275.942139 
	C369.217957,279.741455 369.402924,283.540802 369.628357,288.171814 
	C340.428925,288.171814 311.644684,288.171814 282.860443,288.171814 
	C282.860046,288.681976 282.859650,289.192139 282.859283,289.702301 
	C311.585571,289.702301 340.311859,289.702301 369.303345,289.702301 
	C369.303345,294.182465 369.303345,297.953369 369.303345,302.325897 
	C367.514008,302.410156 365.757782,302.563782 364.001495,302.564880 
	C338.505585,302.580475 313.009583,302.547455 287.513977,302.639130 
	C285.813019,302.645233 284.115356,303.559998 282.416138,304.052155 
	C282.584930,304.643250 282.753693,305.234344 282.922455,305.825439 
	C311.531921,305.825439 340.141357,305.825439 369.162170,305.825439 
	C369.162170,310.078308 369.162170,313.944397 369.162170,318.575531 
	C367.388580,318.575531 365.627899,318.575531 363.867249,318.575531 
	C339.537811,318.575531 315.205536,318.362671 290.880432,318.686859 
	C281.935303,318.806091 272.991730,320.984894 264.074890,320.811798 
	C251.818619,320.573883 239.588318,318.994629 227.347153,317.987000 
	C226.365067,317.906189 225.384933,317.802032 224.127121,317.682434 
	C225.224304,358.587799 226.317093,399.328949 227.420349,440.461060 
	C197.735413,440.461060 168.216690,440.461060 138.424255,440.461060 
	C138.424255,309.569794 138.424255,178.833130 138.424255,47.760349 
	C167.763504,47.760349 197.014786,47.760349 227.004395,47.760349 
	C227.004395,49.654530 227.004379,51.566212 227.004379,53.477898 
	C227.004395,102.636681 226.842545,151.796555 227.172882,200.953125 
	C227.224487,208.631897 228.933716,216.451630 230.932632,223.923645 
	C233.049362,231.835953 239.082275,236.674561 247.185318,237.483597 
	C253.216934,238.085800 259.592865,238.028961 265.473419,236.724167 
	C275.165222,234.573715 278.741119,226.471054 281.257874,217.373413 
	C281.724823,217.029846 281.918915,217.038406 282.113037,217.046249 
	C282.413086,220.279037 284.674042,220.182632 287.110321,220.178497 
	C312.594940,220.135269 338.079651,220.151886 363.564331,220.151932 
	C365.350616,220.151932 367.136902,220.151947 369.183716,220.151947 
	C369.183716,224.501236 369.183716,228.273422 369.183716,232.963089 
	C340.357483,232.963089 311.624268,232.963089 282.891022,232.963089 
	C282.871643,233.751511 282.852264,234.539917 282.832886,235.328339 
	C292.194427,235.543884 301.577515,235.390381 310.947906,235.418060 
	C320.608673,235.446594 330.269623,235.424423 339.930481,235.424423 
	C349.559692,235.424423 359.188904,235.424408 369.193237,235.424408 
	C369.193237,239.805588 369.193237,243.681870 369.193237,248.058578 
	C340.484589,248.058578 311.920746,248.058578 283.356934,248.058578 
	C283.356232,248.423340 283.355530,248.788101 283.354828,249.152863 
	C311.894623,249.152863 340.434448,249.152863 369.392212,249.152863 
	C369.392212,253.218399 369.392212,256.686981 368.789276,260.590515 
	C339.997223,261.025482 311.808136,261.025482 283.619019,261.025482 
	C283.622742,261.656464 283.626465,262.287476 283.630219,262.918457 
	C312.134338,262.918457 340.638458,262.918457 369.142578,262.918457 
z"/>
<path fill="#D282A6" opacity="1.000000" stroke="none" 
	d="
M282.337463,216.629028 
	C281.918915,217.038406 281.724823,217.029846 281.384888,217.015961 
	C281.611328,212.243958 281.983704,207.476578 282.378571,202.420959 
	C311.242798,202.420959 340.103058,202.420959 369.286316,202.420959 
	C369.286316,206.455154 369.286316,210.356201 369.286316,214.869781 
	C367.343750,214.869781 365.575684,214.869781 363.807587,214.869781 
	C338.515533,214.869797 313.223358,214.842636 287.931580,214.927567 
	C286.140259,214.933578 284.351715,215.764465 282.337463,216.629028 
z"/>
<path fill="#D282A6" opacity="1.000000" stroke="none" 
	d="
M314.000000,47.130188 
	C332.624573,47.130215 350.749115,47.130215 369.240356,47.130215 
	C369.240356,51.330635 369.240356,55.232418 369.240356,59.504921 
	C340.354279,59.504921 311.510956,59.504921 282.322693,59.504921 
	C282.322693,55.637863 282.322693,51.733631 282.322693,47.130157 
	C292.666443,47.130157 303.083221,47.130157 314.000000,47.130188 
z"/>
<path fill="#D282A6" opacity="1.000000" stroke="none" 
	d="
M292.047302,103.608887 
	C288.587555,103.608711 285.618866,103.608711 282.316925,103.608711 
	C282.316925,99.353607 282.316925,95.469955 282.316925,91.278168 
	C311.165558,91.278168 340.030853,91.278168 369.253143,91.278168 
	C369.253143,95.130211 369.253143,99.019859 369.253143,103.609062 
	C343.634155,103.609062 318.086273,103.609062 292.047302,103.608887 
z"/>
<path fill="#D282A6" opacity="1.000000" stroke="none" 
	d="
M304.000153,124.391113 
	C325.935944,124.391289 347.371765,124.391289 369.207520,124.391289 
	C369.207520,128.590927 369.207520,132.469711 369.207520,136.689438 
	C340.372711,136.689438 311.527374,136.689438 282.329956,136.689438 
	C282.329956,132.901733 282.329956,129.002075 282.329956,124.390945 
	C289.323029,124.390945 296.411591,124.390945 304.000153,124.391113 
z"/>
<path fill="#D282A6" opacity="1.000000" stroke="none" 
	d="
M331.000000,153.979034 
	C343.963562,153.979034 356.427155,153.979034 369.249023,153.979034 
	C369.249023,158.126114 369.249023,162.014343 369.249023,166.258453 
	C340.342621,166.258453 311.500092,166.258453 282.317627,166.258453 
	C282.317627,162.354797 282.317627,158.470306 282.317627,153.979034 
	C298.362183,153.979034 314.431091,153.979034 331.000000,153.979034 
z"/>
<path fill="#D282A6" opacity="1.000000" stroke="none" 
	d="
M302.000458,179.391113 
	C324.601776,179.391281 346.703247,179.391281 369.206116,179.391281 
	C369.206116,183.586975 369.206116,187.464050 369.206116,191.687805 
	C340.375153,191.687805 311.529968,191.687805 282.331360,191.687805 
	C282.331360,187.904785 282.331360,184.005478 282.331360,179.390930 
	C288.654144,179.390930 295.077362,179.390930 302.000458,179.391113 
z"/>
<path fill="#D282A6" opacity="1.000000" stroke="none" 
	d="
M282.437805,330.358765 
	C311.530304,330.002106 340.302002,330.002106 369.310760,330.002106 
	C369.310760,334.139374 369.310760,337.896576 369.310760,341.907806 
	C340.276611,341.907806 311.501740,341.907806 282.117004,341.907806 
	C282.117004,338.229279 282.117004,334.472382 282.437805,330.358765 
z"/>
<path fill="#D282A6" opacity="1.000000" stroke="none" 
	d="
M369.220215,262.613098 
	C340.638458,262.918457 312.134338,262.918457 283.630219,262.918457 
	C283.626465,262.287476 283.622742,261.656464 283.619019,261.025482 
	C311.808136,261.025482 339.997223,261.025482 368.665955,261.045868 
	C369.196320,261.480072 369.247070,261.893921 369.220215,262.613098 
z"/>
<path fill="#D282A6" opacity="1.000000" stroke="none" 
	d="
M369.029938,275.681702 
	C340.491821,275.942139 311.950653,275.942139 283.409485,275.942139 
	C283.409119,275.564270 283.408722,275.186371 283.408356,274.808502 
	C311.610413,274.808502 339.812439,274.808502 368.476685,274.858154 
	C368.968201,275.078949 368.997559,275.250092 369.029938,275.681702 
z"/>
</svg>